<svg width="1920" height="705" viewBox="0 0 1920 705" fill="none" xmlns="http://www.w3.org/2000/svg">
<g filter="url(#filter0_f_17141_573)">
<path opacity="0.15" d="M1623.13 307.88C1656.64 344.97 1683.82 409.451 1633.73 454.973C1628.57 459.666 1580.11 502.248 1507.24 496.96C1418.48 490.52 1400.28 420.812 1302.32 402.716C1196.23 383.119 1133.97 449.425 1082.17 429.056C1020.91 404.97 1013.39 275.071 1124.27 219.396C1257.84 152.326 1533.02 208.151 1623.13 307.88Z" fill="#EBC136"/>
<path opacity="0.15" d="M788.181 499.639C819.243 480.569 853.091 442.149 832.07 403.285C829.902 399.279 809.198 362.654 760.615 353.834C701.441 343.09 672.098 386.52 604.027 381.996C530.311 377.096 506.624 322.301 467.907 327.114C422.125 332.806 384.563 418.21 442.449 474.149C512.184 541.538 704.659 550.917 788.181 499.639Z" fill="#EBC136"/>
<path opacity="0.15" d="M970.511 391.89C955.123 370.799 939.4 330.221 952.883 292.859C954.273 289.007 967.454 253.857 993.813 248.298C1025.92 241.526 1038.95 286.799 1075.42 286.823C1114.91 286.849 1130.75 233.774 1151.06 241.155C1175.07 249.883 1189.98 337.571 1155.88 389.508C1114.8 452.075 1011.89 448.602 970.511 391.89Z" fill="#EBC136"/>
<path opacity="0.15" d="M958.403 344.802C975.22 334.124 993.558 312.633 982.212 290.936C981.043 288.699 969.867 268.254 943.59 263.363C911.585 257.407 895.681 281.693 858.859 279.218C818.982 276.538 806.206 245.943 785.257 248.661C760.486 251.876 740.106 299.62 771.384 330.828C809.063 368.423 913.183 373.514 958.403 344.802Z" fill="#EBC136"/>
<path opacity="0.15" d="M1682.56 318.365C1700.7 302.046 1720.64 269.494 1708.88 237.192C1707.67 233.861 1696.08 203.43 1668.1 196.595C1634.03 188.269 1616.64 224.965 1577.36 221.946C1534.82 218.678 1521.69 173.066 1499.28 177.534C1472.77 182.818 1450.21 254.751 1483.09 300.934C1522.7 356.569 1633.79 362.244 1682.56 318.365Z" fill="#8047F8"/>
<path opacity="0.15" d="M1694.54 447.852C1708.64 458.804 1724.09 480.725 1714.77 502.622C1713.81 504.88 1704.63 525.511 1682.75 530.261C1656.1 536.047 1642.66 511.312 1611.97 513.533C1578.73 515.938 1568.28 546.841 1550.79 543.922C1530.11 540.471 1512.78 491.932 1538.65 460.552C1569.82 422.75 1656.62 418.404 1694.54 447.852Z" fill="#8047F8"/>
<path opacity="0.15" d="M495.873 206.892C508.442 228.616 520.868 270.056 508.631 307.492C507.369 311.351 495.435 346.558 472.991 351.502C445.653 357.524 435.611 311.405 404.728 310.442C371.283 309.4 356.701 362.665 339.668 354.678C319.526 345.234 308.819 256.175 338.836 204.531C374.996 142.315 462.075 148.476 495.873 206.892Z" fill="#EBC136"/>
<path opacity="0.15" d="M1137.44 502.947C1111.56 483.727 1086.4 445.18 1112.86 406.528C1115.59 402.543 1141.37 366.123 1188.54 357.62C1245.98 347.262 1266.05 390.78 1330.78 386.683C1400.88 382.246 1432.6 327.712 1468.14 332.753C1510.17 338.713 1530.7 424.166 1466.65 479.631C1389.49 546.449 1207.05 554.627 1137.44 502.947Z" fill="#EBC136"/>
<path opacity="0.15" d="M1063.86 469.538C1085.5 450.513 1108.19 413.904 1090.9 380.187C1089.12 376.71 1072.18 344.989 1036.37 339.962C992.74 333.84 973.59 374.687 923.804 374.695C869.889 374.704 849.856 326.808 821.915 333.46C788.875 341.327 765.878 420.444 810.867 467.321C865.065 523.792 1005.66 520.695 1063.86 469.538Z" fill="#8047F8"/>
<path opacity="0.15" d="M1111.41 211.004C1151.96 221.666 1195.01 241.465 1164.27 258.257C1161.1 259.989 1130.93 275.762 1065.05 277.009C984.799 278.528 948.117 256.67 856.305 254.784C756.878 252.742 721.537 276.767 669.788 272.269C608.595 266.95 563.538 225.145 644.936 202.591C742.994 175.42 1002.38 182.335 1111.41 211.004Z" fill="#8047F8"/>
<path opacity="0.15" d="M444.075 452.866C463.161 430.714 483.286 388.381 468.39 349.978C466.854 346.018 452.246 309.899 420.916 304.685C382.756 298.335 365.697 345.475 322.099 346.25C274.885 347.089 257.68 292.467 233.165 300.526C204.176 310.056 183.478 401.145 222.544 454.214C269.607 518.144 392.752 512.431 444.075 452.866Z" fill="#8047F8"/>
</g>
<defs>
<filter id="filter0_f_17141_573" x="-160" y="-147" width="2240" height="980" filterUnits="userSpaceOnUse" color-interpolation-filters="sRGB">
<feFlood flood-opacity="0" result="BackgroundImageFix"/>
<feBlend mode="normal" in="SourceGraphic" in2="BackgroundImageFix" result="shape"/>
<feGaussianBlur stdDeviation="80" result="effect1_foregroundBlur_17141_573"/>
</filter>
</defs>
</svg>
